<svg width="20" height="20" viewBox="0 0 20 20" fill="none" xmlns="http://www.w3.org/2000/svg">
<path d="M16.0594 2.39038H3.90099C2.83168 2.39038 2 3.26687 2 4.30273V18.0876C2 19.1234 2.83168 19.9999 3.90099 19.9999H16.099C17.1287 19.9999 18 19.1633 18 18.0876V4.30273C17.9604 3.26687 17.1287 2.39038 16.0594 2.39038ZM16.7723 18.0876C16.7723 18.486 16.4554 18.8047 16.0594 18.8047H3.90099C3.50495 18.8047 3.18812 18.486 3.18812 18.0876V4.30273C3.18812 3.90432 3.50495 3.5856 3.90099 3.5856H16.099C16.495 3.5856 16.8119 3.90432 16.8119 4.30273V18.0876H16.7723Z" fill="#93A1BC"/>
<path d="M12.8113 0H7.1875V1.19522H12.8113V0Z" fill="#93A1BC"/>
<path d="M11.901 6.25488L10.5149 6.29472L7.06934 12.6294L11.1089 11.9123L8.77231 16.733H10.0792L13.2476 10.3186L9.28716 11.0358L11.901 6.25488Z" fill="#93A1BC"/>
</svg>
