<svg width="20" height="20" viewBox="0 0 20 20" fill="none" xmlns="http://www.w3.org/2000/svg">
<path d="M18.1955 2.4209H1.80451C0.789474 2.4209 0 3.25223 0 4.23472V17.0071C0 17.9896 0.789474 18.8209 1.80451 18.8209H18.1955C19.1729 18.8209 20 18.0273 20 17.0071V4.23472C19.9624 3.25223 19.1729 2.4209 18.1955 2.4209ZM18.8346 17.0071C18.8346 17.385 18.5338 17.6873 18.1579 17.6873H1.80451C1.42857 17.6873 1.12782 17.385 1.12782 17.0071V4.23472C1.12782 3.85684 1.42857 3.55454 1.80451 3.55454H18.1955C18.5714 3.55454 18.8722 3.85684 18.8722 4.23472V17.0071H18.8346Z" fill="#93A1BC"/>
<path d="M7.79233 0H2.4209V1.13481H7.79233V0Z" fill="#93A1BC"/>
<path d="M16.8333 0H11.4619V1.13481H16.8333V0Z" fill="#93A1BC"/>
<path d="M12.9747 13.8825C12.5208 13.8825 11.6129 13.4286 10.6673 10.4403C9.75942 7.71675 8.70027 6.35498 7.37633 6.35498C7.37633 6.35498 7.37633 6.35498 7.3385 6.35498C5.06888 6.35498 3.48015 10.6294 3.29102 11.1212L4.35017 11.4994C4.84192 10.1755 6.16586 7.48979 7.3385 7.48979C8.05721 7.48979 8.85158 8.70025 9.57029 10.8186C10.4781 13.6178 11.6129 14.9795 12.9369 15.0174H12.9747C15.2065 15.0174 16.7952 11.0834 16.9844 10.6294L15.9252 10.2133C15.4335 11.4238 14.1095 13.8825 12.9747 13.8825Z" fill="#93A1BC"/>
</svg>
