<svg width="20" height="20" viewBox="0 0 20 20" fill="none" xmlns="http://www.w3.org/2000/svg">
<path d="M20 19.1999L12.7304 0.399902H0L3.65188 9.78076L0.238908 18.7787L1.33106 18.8553L4.19795 11.2357L7.26962 19.1616H20V19.1999ZM6.38225 13.9926H9.18089L10.785 18.0129H7.91809L6.38225 13.9926ZM10.3413 6.83249L12.7304 12.8439H9.86348L7.4744 6.83249H10.3413ZM6.99659 5.68381L5.35836 1.54858H8.22526L9.89761 5.68381H6.99659ZM14.1297 6.83249L16.4505 12.8822H13.8567L11.4676 6.87078L14.1297 6.83249ZM13.1741 13.9926L14.7782 18.0129H11.9113L10.3072 13.9926H13.1741ZM8.7372 12.8439H5.93857L3.61775 6.83249H6.34812L8.7372 12.8439ZM15.9044 18.0512L14.3003 14.0309H16.8942L18.4642 18.0512H15.9044ZM13.686 5.68381H11.0239L9.35154 1.54858H12.0819L13.686 5.68381ZM4.23208 1.54858L5.87031 5.68381H3.13993L1.56997 1.54858H4.23208Z" fill="#93A1BC"/>
</svg>
