<svg width="20" height="20" viewBox="0 0 20 20" fill="none" xmlns="http://www.w3.org/2000/svg">
<g clip-path="url(#clip0_846_156)">
<path d="M18.2298 2H1.80791C0.790961 2 0 2.79538 0 3.81801V16.6199C0 17.6046 0.790961 18.4379 1.80791 18.4379H18.2298C19.209 18.4379 20.0377 17.6425 20.0377 16.6199V3.81801C20 2.79538 19.209 2 18.2298 2ZM18.8701 16.582C18.8701 16.9607 18.5687 17.2637 18.1921 17.2637H1.80791C1.43126 17.2637 1.12994 16.9607 1.12994 16.582V3.81801C1.12994 3.43926 1.43126 3.13626 1.80791 3.13626H18.2298C18.6064 3.13626 18.9077 3.43926 18.9077 3.81801V16.582H18.8701Z" fill="#93A1BC"/>
<path d="M14.8021 5.10571H5.19756C4.21827 5.10571 3.38965 5.90109 3.38965 6.92373V13.5519C3.38965 14.5367 4.18061 15.3699 5.19756 15.3699H14.8021C15.7814 15.3699 16.61 14.5745 16.61 13.5519V6.88585C16.61 5.90109 15.819 5.10571 14.8021 5.10571ZM12.2785 14.1958H7.75876C8.02242 13.1731 8.92637 12.4156 10.0187 12.4156C11.1109 12.4156 12.0149 13.1731 12.2785 14.1958ZM15.48 13.514C15.48 13.8928 15.1787 14.1958 14.8021 14.1958H13.4085C13.2955 13.4383 12.9188 12.7944 12.4292 12.302L14.1618 9.575L13.2202 8.96899L11.5252 11.6581C11.0733 11.4309 10.5836 11.3173 10.0187 11.3173C8.32374 11.3173 6.89247 12.5671 6.62882 14.2337H5.23522C4.85858 14.2337 4.55726 13.9307 4.55726 13.5519V6.88585C4.55726 6.5071 4.85858 6.2041 5.23522 6.2041H14.8397C15.2164 6.2041 15.5177 6.5071 15.5177 6.88585V13.514H15.48Z" fill="#93A1BC"/>
</g>
<defs>
<clipPath id="clip0_846_156">
<rect width="20" height="16.4" fill="white" transform="translate(0 2)"/>
</clipPath>
</defs>
</svg>
