<svg width="16" height="15" viewBox="0 0 16 15" fill="none" xmlns="http://www.w3.org/2000/svg">
<path d="M9.12922 11.1365C9.7866 10.6911 10.5297 10.2194 11.2014 10.5338C12.1017 10.9662 12.9877 11.3855 13.8881 11.8047C14.6169 12.1585 14.8884 12.5515 14.4597 13.2459C13.788 14.3596 12.016 15.2767 10.6726 14.923C4.85627 13.4162 0.912004 8.35892 1.36931 2.73822C1.46935 1.45424 3.01275 0.235764 4.37038 0.0261341C5.22783 -0.104885 5.54223 0.261968 5.65656 1.00877C5.78517 1.92591 5.8995 2.85614 6.02812 3.76017C6.12815 4.45457 5.39932 4.93934 4.72765 5.34549C3.08421 6.39364 7.50007 12.1716 9.12922 11.1365Z" fill="white"/>
</svg>
