<svg width="20" height="23" viewBox="0 0 20 23" fill="none" xmlns="http://www.w3.org/2000/svg">
<path fill-rule="evenodd" clip-rule="evenodd" d="M9.99801 10.4908C7.23723 10.4908 4.99946 8.20784 4.99946 5.39196C4.99946 2.57578 7.23754 0.292786 9.99801 0.292786C12.7588 0.292786 14.9969 2.57578 14.9969 5.39196C14.9966 8.20784 12.7588 10.4908 9.99801 10.4908ZM9.97541 2.83194C8.5967 2.83194 7.47888 3.97218 7.47888 5.37888C7.47888 6.78526 8.5967 7.92551 9.97541 7.92551C11.3544 7.92551 12.4719 6.78526 12.4719 5.37888C12.4719 3.97218 11.3541 2.83194 9.97541 2.83194ZM5.82614 11.7414C5.82614 12.2079 5.57013 12.5981 5.20598 12.824C5.21362 12.8327 5.21973 12.843 5.22767 12.8517C3.75731 13.6894 2.64714 14.9166 2.52707 16.4538C2.51852 16.499 2.5005 16.5405 2.5005 16.5885V19.1027C2.5005 19.5038 2.81913 19.8291 3.21261 19.8291H16.8048C17.198 19.8291 17.5169 19.5041 17.5169 19.1027V16.5885C17.5169 16.5452 17.4998 16.5078 17.4928 16.4666C17.3755 14.92 16.2308 13.6866 14.725 12.8467C14.732 12.839 14.7375 12.8296 14.7445 12.8218C14.3828 12.5953 14.1286 12.2067 14.1286 11.742C14.1286 11.0309 14.6938 10.4544 15.391 10.4544C15.6827 10.4544 15.9387 10.5719 16.1523 10.7414C16.1529 10.7398 16.1541 10.7386 16.1547 10.737C16.1914 10.7619 16.2247 10.7906 16.261 10.8162C16.2683 10.8233 16.2781 10.8268 16.2852 10.8339C18.3836 12.3051 19.9475 14.4068 20 16.787H19.9921V20.8216C19.9921 21.6842 19.3218 22.3835 18.4948 22.3835C18.4948 22.3835 14.2466 22.3835 9.99801 22.3835C5.74824 22.3835 1.49816 22.3835 1.49816 22.3835C0.670261 22.3832 0 21.6839 0 20.8213V16.7867C0 16.6623 0.0174134 16.543 0.0436862 16.427C0.233706 14.1998 1.70773 12.2388 3.66353 10.8427C3.69133 10.8137 3.72829 10.7972 3.75853 10.771C3.76984 10.7629 3.78023 10.7538 3.79183 10.7461C3.79214 10.7467 3.79245 10.747 3.79275 10.7476C4.00782 10.5737 4.2681 10.4541 4.56383 10.4541C5.26097 10.4537 5.82614 11.0303 5.82614 11.7414Z" fill="#26447A"/>
</svg>
