<svg width="20" height="20" viewBox="0 0 20 20" fill="none" xmlns="http://www.w3.org/2000/svg">
<path d="M14.9513 0H4.78387C3.98469 0 3.3335 0.658854 3.3335 1.46745V17.6955C3.3335 18.5078 3.98469 19.1667 4.78387 19.1667H14.9513C15.7542 19.1667 16.4054 18.5078 16.4054 17.6992V1.46745C16.4017 0.658854 15.7542 0 14.9513 0ZM7.68833 16.228H6.23795V14.7568H7.68833V16.228ZM7.68833 13.2894H6.23795V11.8219H7.68833V13.2894ZM7.68833 10.3507H6.23795V8.87956H7.68833V10.3507ZM10.5928 16.228H9.1424V14.7568H10.5928V16.228ZM10.5928 13.2894H9.1424V11.8219H10.5928V13.2894ZM10.5928 10.3507H9.1424V8.87956H10.5928V10.3507ZM13.4972 16.228H12.0469V14.7568H13.4972V16.228ZM13.4972 13.2894H12.0469V11.8219H13.4972V13.2894ZM13.4972 10.3507H12.0469V8.87956H13.4972V10.3507ZM13.4972 5.94092H6.23795V2.93864H13.4972V5.94092Z" fill="white"/>
</svg>
