<svg width="24" height="24" viewBox="0 0 24 24" fill="none" xmlns="http://www.w3.org/2000/svg">
<path fill-rule="evenodd" clip-rule="evenodd" d="M23.4762 5.47539C22.9921 4.82994 22.2391 4.45342 21.3785 4.45342H6.93097L6.33931 2.19432C6.07037 1.01098 5.04839 0.204163 3.81127 0.204163H1.3447C0.591669 0.204163 0 0.795831 0 1.54886C0 2.3019 0.591669 2.89357 1.3447 2.89357H3.75748L6.8234 14.8883C7.14613 16.0716 8.1681 16.8785 9.35144 16.8785H19.4421C20.6254 16.8785 21.7012 16.0716 21.9701 14.9421L23.9065 7.73449C24.1216 6.92767 23.9603 6.12085 23.4762 5.47539ZM19.4421 14.1353H9.45901L7.63022 7.08903H21.2709L19.4421 14.1353ZM9.3913 19.8261C8.25838 19.8261 7.30435 20.7801 7.30435 21.913C7.30435 23.0459 8.25838 24 9.3913 24C10.5242 24 11.4783 23.0459 11.4783 21.913C11.4783 20.7801 10.5242 19.8261 9.3913 19.8261ZM17.7391 21.913C17.7391 20.7801 18.6932 19.8261 19.8261 19.8261C20.959 19.8261 21.913 20.7801 21.913 21.913C21.913 23.0459 20.959 24 19.8261 24C18.6932 24 17.7391 23.0459 17.7391 21.913Z" fill="#26447A"/>
</svg>
