<svg width="16" height="17" viewBox="0 0 16 17" fill="none" xmlns="http://www.w3.org/2000/svg">
<g clip-path="url(#clip0_2448_20755)">
<path d="M15.7838 11.0554C15.076 9.59451 14.2582 8.20061 13.3584 6.86321C13.2244 6.66438 13.0785 6.47601 12.9245 6.29183V4.82258C12.9725 4.82258 13.0185 4.82258 13.0665 4.82258C13.2204 4.82258 13.3524 4.78072 13.4804 4.70119C14.0722 4.3412 14.1722 3.51449 13.6743 3.02683C13.4964 2.85102 13.2944 2.74847 13.0305 2.74847C12.0007 2.75056 10.971 2.73172 9.94125 2.72963C9.78128 2.72963 9.68931 2.67521 9.59133 2.54545C9.07546 1.85268 8.39163 1.57851 7.56784 1.74804C7.04597 1.85687 6.64207 2.17918 6.33815 2.63335C6.29216 2.70033 6.24417 2.72544 6.16619 2.72544C5.05247 2.73172 3.94075 2.74219 2.82702 2.75265C2.78703 2.75265 2.74504 2.75265 2.70905 2.7694C2.27316 2.97451 1.98324 3.28636 2.01123 3.87029C2.03322 4.32865 2.39913 4.75561 2.83702 4.79956C2.931 4.80793 3.02497 4.8163 3.12095 4.8184V6.22905C3.02497 6.33788 2.935 6.44881 2.85102 6.56601C2.16119 7.52668 1.54934 8.54176 0.979487 9.58195C0.665565 10.1554 0.383636 10.7498 0.0917089 11.3379C0.015728 11.4907 -0.0142645 11.6603 0.00173146 11.834C0.0377225 12.2358 0.117702 12.623 0.259667 13.0018C0.829524 14.5109 2.24717 15.2999 3.49886 15.2811C3.58883 15.2811 3.67881 15.2873 3.76879 15.279C5.35639 15.1304 6.58408 13.9834 6.928 12.3509C7.02597 11.8884 6.98798 11.4656 6.77804 11.0366C6.05022 9.55475 5.22642 8.13363 4.30066 6.77949C4.19668 6.6288 4.08271 6.48439 3.96474 6.34625V4.82468C4.66257 4.82886 5.36039 4.83095 6.05622 4.82886C6.21018 4.82886 6.30016 4.87909 6.39013 5.00676C6.78603 5.57395 7.3339 5.84604 7.97774 5.88162C8.06172 5.87534 8.1237 5.87115 8.18768 5.86697C8.21368 5.86487 8.24167 5.86069 8.26766 5.8565C8.84152 5.75813 9.3014 5.46512 9.63732 4.967C9.69731 4.877 9.76129 4.84351 9.86726 4.84351C10.6051 4.83933 11.3449 4.83305 12.0827 4.82677V6.26881C12.0047 6.36299 11.9287 6.45927 11.8568 6.55973C11.101 7.62086 10.4331 8.74268 9.80928 9.89171C9.54334 10.3815 9.3074 10.89 9.07546 11.4007C9.01748 11.5263 9.00348 11.6854 9.00948 11.8277C9.02747 12.284 9.13145 12.7214 9.3214 13.1379C9.95724 14.5402 11.049 15.1994 12.4066 15.2978C13.5124 15.2643 14.3861 14.8897 15.078 14.0965C15.6238 13.4707 15.9177 12.7235 15.9937 11.88C16.0217 11.5786 15.9098 11.3149 15.7838 11.0554ZM5.67831 11.0868C4.22468 11.0868 2.77704 11.0868 1.3114 11.0868C1.98723 9.81846 2.69506 8.59199 3.47686 7.41156C3.7128 7.61039 5.40238 10.4401 5.67831 11.0868ZM7.99773 4.8163C7.44987 4.86026 7.01598 4.28679 7.00798 3.82006C6.99598 3.17752 7.52585 2.74847 7.94374 2.75056C8.55759 2.75475 8.97149 3.17334 8.98948 3.78029C9.00748 4.3433 8.5156 4.86235 7.99773 4.8163ZM10.3112 11.0973C10.975 9.82264 11.6848 8.59199 12.5026 7.39482C13.3084 8.59199 14.0242 9.81637 14.6921 11.0973C13.2224 11.0973 11.7768 11.0973 10.3112 11.0973Z" fill="#26447A"/>
</g>
<defs>
<clipPath id="clip0_2448_20755">
<rect width="16" height="13.6" fill="white" transform="translate(0 1.70001)"/>
</clipPath>
</defs>
</svg>
