<svg width="15" height="15" viewBox="0 0 15 15" fill="none" xmlns="http://www.w3.org/2000/svg">
<path fill-rule="evenodd" clip-rule="evenodd" d="M0 2.8125C0 2.29473 0.419733 1.875 0.9375 1.875H14.0625C14.5803 1.875 15 2.29473 15 2.8125C15 3.33027 14.5803 3.75 14.0625 3.75H0.9375C0.419733 3.75 0 3.33027 0 2.8125ZM0 7.5C0 6.98224 0.419733 6.5625 0.937501 6.5625H14.0625C14.5803 6.5625 15 6.98224 15 7.5C15 8.01777 14.5803 8.43751 14.0625 8.43751H0.937501C0.419734 8.43751 0 8.01777 0 7.5ZM0.937501 11.25C0.419733 11.25 0 11.6697 0 12.1875C0 12.7053 0.419734 13.125 0.937501 13.125H14.0625C14.5803 13.125 15 12.7053 15 12.1875C15 11.6697 14.5803 11.25 14.0625 11.25H0.937501Z" fill="white"/>
</svg>
