<svg width="15" height="15" viewBox="0 0 15 15" fill="none" xmlns="http://www.w3.org/2000/svg">
<path d="M8.55867 11.1365C9.17496 10.6911 9.87163 10.2194 10.5013 10.5338C11.3454 10.9662 12.176 11.3854 13.0201 11.8047C13.7034 12.1585 13.9579 12.5515 13.556 13.2459C12.9263 14.3596 11.265 15.2767 10.0056 14.923C4.55277 13.4162 0.855023 8.35892 1.28375 2.73822C1.37753 1.45424 2.82448 0.235764 4.09725 0.026134C4.90111 -0.104885 5.19586 0.261968 5.30304 1.00877C5.42362 1.9259 5.5308 2.85614 5.65138 3.76017C5.74516 4.45456 5.06188 4.93933 4.43219 5.34549C2.89146 6.39364 7.03133 12.1716 8.55867 11.1365Z" fill="#4674C9"/>
</svg>
