<svg width="16" height="15" viewBox="0 0 16 15" fill="none" xmlns="http://www.w3.org/2000/svg">
<path d="M14.7785 13.2558L11.1709 10.186C11.8038 9.22674 12.1835 8.0436 12.1835 6.79651C12.1835 3.375 9.46203 0.625 6.07595 0.625C2.68987 0.625 0 3.375 0 6.76454C0 10.1541 2.72152 12.9041 6.07595 12.9041C7.75316 12.9041 9.24051 12.2326 10.3481 11.1453L13.9557 14.2151C14.0823 14.311 14.2089 14.375 14.3671 14.375C14.557 14.375 14.7152 14.311 14.8418 14.1512C15.0949 13.8953 15.0633 13.4797 14.7785 13.2558ZM6.07595 11.657C3.41772 11.657 1.26582 9.48256 1.26582 6.76454C1.26582 4.04651 3.41772 1.90407 6.07595 1.90407C8.73418 1.90407 10.8861 4.07849 10.8861 6.76454C10.8861 9.45058 8.76582 11.657 6.07595 11.657Z" fill="white"/>
</svg>
