<svg width="17" height="16" viewBox="0 0 17 16" fill="none" xmlns="http://www.w3.org/2000/svg">
<g clip-path="url(#clip0_1660_35949)">
<path d="M16.284 10.4051C15.5761 9.03011 14.7583 7.7182 13.8586 6.45948C13.7246 6.27234 13.5786 6.09506 13.4247 5.92171V4.53888C13.4727 4.53888 13.5187 4.53888 13.5666 4.53888C13.7206 4.53888 13.8526 4.49949 13.9805 4.42463C14.5724 4.08582 14.6724 3.30774 14.1745 2.84876C13.9965 2.6833 13.7946 2.58677 13.5307 2.58677C12.5009 2.58874 11.4712 2.57102 10.4414 2.56905C10.2815 2.56905 10.1895 2.51783 10.0915 2.3957C9.57564 1.74368 8.89182 1.48564 8.06802 1.64519C7.54615 1.74762 7.14225 2.05098 6.83833 2.47843C6.79234 2.54147 6.74435 2.56511 6.66637 2.56511C5.55265 2.57102 4.44093 2.58087 3.32721 2.59071C3.28722 2.59071 3.24523 2.59071 3.20924 2.60647C2.77335 2.79952 2.48342 3.09302 2.51141 3.64261C2.53341 4.074 2.89931 4.47585 3.3372 4.51722C3.43118 4.52509 3.52516 4.53297 3.62113 4.53494V5.86261C3.52516 5.96505 3.43518 6.06945 3.3512 6.17976C2.66137 7.08391 2.04953 8.03928 1.47967 9.01829C1.16575 9.55803 0.883819 10.1175 0.591892 10.671C0.515911 10.8148 0.485919 10.9743 0.501915 11.1378C0.537906 11.516 0.617886 11.8805 0.75985 12.237C1.32971 13.6573 2.74735 14.3999 3.99904 14.3822C4.08902 14.3822 4.17899 14.3881 4.26897 14.3802C5.85657 14.2403 7.08427 13.1609 7.42818 11.6244C7.52616 11.1891 7.48817 10.7911 7.27822 10.3873C6.5504 8.99269 5.72661 7.65517 4.80084 6.38068C4.69686 6.23885 4.58289 6.10293 4.46492 5.97293V4.54085C5.16275 4.54479 5.86057 4.54676 6.5564 4.54479C6.71036 4.54479 6.80034 4.59207 6.89032 4.71223C7.28622 5.24606 7.83408 5.50213 8.47792 5.53562C8.5619 5.52971 8.62388 5.52577 8.68787 5.52183C8.71386 5.51986 8.74185 5.51592 8.76785 5.51198C9.3417 5.4194 9.80159 5.14362 10.1375 4.6748C10.1975 4.5901 10.2615 4.55858 10.3674 4.55858C11.1053 4.55464 11.8451 4.54873 12.5829 4.54282V5.90004C12.5049 5.98868 12.4289 6.0793 12.3569 6.17385C11.6011 7.17256 10.9333 8.22839 10.3095 9.30983C10.0435 9.77077 9.80759 10.2494 9.57564 10.7301C9.51766 10.8483 9.50366 10.998 9.50966 11.1319C9.52766 11.5614 9.63163 11.9731 9.82158 12.365C10.4574 13.6848 11.5492 14.3053 12.9068 14.3979C14.0125 14.3664 14.8863 14.0138 15.5781 13.2672C16.124 12.6783 16.4179 11.975 16.4939 11.1812C16.5219 10.8975 16.4099 10.6493 16.284 10.4051ZM6.17849 10.4346C4.72486 10.4346 3.27722 10.4346 1.81159 10.4346C2.48742 9.24089 3.19524 8.08656 3.97704 6.97557C4.21299 7.16271 5.90256 9.82593 6.17849 10.4346ZM8.49791 4.53297C7.95005 4.57434 7.51616 4.03461 7.50816 3.59533C7.49616 2.99059 8.02603 2.58677 8.44393 2.58874C9.05777 2.59268 9.47167 2.98665 9.48967 3.5579C9.50766 4.08779 9.01578 4.57631 8.49791 4.53297ZM10.8113 10.4445C11.4752 9.24482 12.185 8.08656 13.0028 6.95981C13.8086 8.08656 14.5244 9.23892 15.1922 10.4445C13.7226 10.4445 12.277 10.4445 10.8113 10.4445Z" fill="white"/>
</g>
<defs>
<clipPath id="clip0_1660_35949">
<rect width="16" height="12.8" fill="white" transform="translate(0.5 1.59998)"/>
</clipPath>
</defs>
</svg>
