<svg width="138" height="28" viewBox="0 0 138 28" fill="none" xmlns="http://www.w3.org/2000/svg">
<g clip-path="url(#clip0_1660_35585)">
<path d="M15.2353 0.901786L8.01859 13.2768L13.1505 13.1964L1.6839 16.6518L15.2353 0.901786C14.2731 0.660714 13.2307 0.5 12.1883 0.5C5.45264 0.5 0 5.88393 0 12.4732C0 17.9375 3.68855 22.5179 8.74027 23.9643L15.7164 11.75L10.5845 11.8304L22.6926 7.8125L8.74027 24.0446C9.86287 24.3661 10.9855 24.5268 12.1883 24.5268C18.9239 24.5268 24.3765 19.1429 24.3765 12.5536C24.2963 6.92857 20.4474 2.26786 15.2353 0.901786Z" fill="white"/>
<path d="M40.975 9.25895V6.68753C40.975 6.3661 40.8146 6.12503 40.4137 6.12503H38.6496V9.82146H40.4137C40.7344 9.82146 40.975 9.58038 40.975 9.25895ZM40.975 15.125V12.4732C40.975 12.3125 40.8948 12.1518 40.8146 12.0715C40.7344 11.9911 40.5741 11.9107 40.3335 11.9107H38.5694V15.6875H40.3335C40.7344 15.6875 40.975 15.5268 40.975 15.125ZM35.5223 4.03574H41.2155C43.0598 4.03574 43.9419 4.83931 43.9419 6.44645V8.85717C43.9419 9.90181 43.6211 10.625 42.9796 10.8661C43.6211 11.1072 43.9419 11.75 43.9419 12.7143V15.3661C43.9419 16.9732 43.0598 17.7768 41.2155 17.7768H35.5223V4.03574ZM49.3945 15.5268H53.8047V17.7768H46.2673V4.03574H53.6444V6.28574H49.3945V9.66074H53.0029V11.9107H49.3945V15.5268V15.5268ZM60.38 14.9643V12.4732C60.38 12.3125 60.2998 12.1518 60.2196 12.0715C60.1394 11.9911 59.979 11.9107 59.7385 11.9107H57.814C56.1301 11.9107 55.2481 11.1072 55.2481 9.50003V6.3661C55.2481 4.75895 56.1301 3.95538 57.9744 3.95538H60.6205C62.4648 3.95538 63.3469 4.75895 63.3469 6.3661V8.13395H60.2196V6.84824C60.2196 6.44645 60.0592 6.28574 59.6583 6.28574H58.9366C58.5357 6.28574 58.3753 6.44645 58.3753 6.84824V9.25895C58.3753 9.41967 58.4555 9.58038 58.5357 9.66074C58.6159 9.7411 58.7763 9.7411 59.0168 9.7411H60.8611C61.8233 9.7411 62.4648 9.98217 62.8657 10.384C63.2667 10.7857 63.5072 11.3482 63.5072 12.1518V15.4465C63.5072 17.0536 62.6252 17.8572 60.7809 17.8572H58.1348C56.2905 17.8572 55.4084 17.0536 55.4084 15.4465V13.6786H58.5357V14.9643C58.5357 15.3661 58.6961 15.5268 59.097 15.5268H59.8187C60.1394 15.5268 60.38 15.3661 60.38 14.9643ZM72.889 4.03574V6.28574H70.323V17.7768H67.1958V6.28574H64.71V4.03574H72.889ZM81.7896 15.5268H86.1998V17.7768H78.6624V4.03574H86.0395V6.28574H81.7896V9.66074H85.398V11.9107H81.7896V15.5268ZM93.7373 4.03574H96.5438V17.8572H93.7373L90.6903 9.58038V17.8572H87.8837V4.03574H90.6903L93.6571 12.3125V4.03574H93.7373ZM101.996 15.5268H106.407V17.7768H98.8692V4.03574H106.246V6.28574H101.996V9.66074H105.605V11.9107H101.996V15.5268V15.5268ZM111.298 12.634V17.7768H108.251V4.03574H113.944C115.788 4.03574 116.67 4.83931 116.67 6.44645V10.3036C116.67 11.5893 116.109 12.3125 114.906 12.634L117.312 17.8572H114.024L111.859 12.7143H111.298V12.634ZM111.298 6.28574V10.4643H112.982C113.222 10.4643 113.303 10.4643 113.383 10.384C113.463 10.3036 113.543 10.1429 113.543 9.98217V6.84824C113.543 6.44645 113.383 6.28574 112.982 6.28574H111.298ZM126.934 8.45538H123.807V6.68753C123.807 6.3661 123.647 6.12503 123.246 6.12503H122.364C121.963 6.12503 121.802 6.28574 121.802 6.68753V15.125C121.802 15.3661 121.883 15.4465 121.963 15.5268C122.043 15.6072 122.203 15.6072 122.444 15.6072H123.326C123.566 15.6072 123.727 15.6072 123.807 15.5268C123.887 15.4465 123.967 15.2857 123.967 15.125V12.4732H122.845V10.384H127.014V15.4465C127.014 17.0536 126.132 17.8572 124.288 17.8572H121.482C119.637 17.8572 118.755 17.0536 118.755 15.4465V6.3661C118.755 4.75895 119.637 3.95538 121.482 3.95538H124.288C126.132 3.95538 127.014 4.75895 127.014 6.3661V8.45538H126.934ZM134.712 17.7768H131.585V13.3572L128.137 4.03574H131.264L133.109 10.5447L134.793 4.03574H137.92L134.712 13.3572V17.7768Z" fill="white"/>
<path d="M38.9992 25.3813C38.9745 25.9414 38.8173 26.3655 38.5278 26.6534C38.2382 26.9414 37.8296 27.0854 37.3021 27.0854C37.0305 27.0854 36.788 27.0404 36.5748 26.9504C36.3615 26.8604 36.182 26.7265 36.036 26.5488C35.8901 26.3711 35.7779 26.1518 35.6993 25.8908C35.623 25.6276 35.5848 25.3251 35.5848 24.9831V24.1463C35.5848 23.8043 35.6241 23.5018 35.7027 23.2386C35.7835 22.9754 35.8991 22.7549 36.0495 22.5772C36.1999 22.3995 36.3817 22.2656 36.595 22.1756C36.8082 22.0834 37.0484 22.0373 37.3156 22.0373C37.8498 22.0373 38.255 22.1869 38.5311 22.4861C38.8095 22.7853 38.9677 23.2149 39.0059 23.7751H38.0126C38.0081 23.5996 37.9924 23.4534 37.9654 23.3364C37.9407 23.2172 37.9015 23.1227 37.8476 23.053C37.7937 22.9832 37.723 22.9338 37.6355 22.9045C37.5502 22.8753 37.4435 22.8606 37.3156 22.8606C37.1831 22.8606 37.0698 22.8831 36.9755 22.9281C36.8834 22.9731 36.8082 23.0462 36.7499 23.1475C36.6915 23.2464 36.6477 23.378 36.6186 23.5423C36.5916 23.7042 36.5782 23.9033 36.5782 24.1395V24.9831C36.5782 25.2126 36.5894 25.4083 36.6118 25.5703C36.6343 25.7322 36.6736 25.865 36.7297 25.9684C36.7858 26.0697 36.8599 26.1439 36.9519 26.1911C37.044 26.2384 37.1607 26.262 37.3021 26.262C37.4233 26.262 37.5266 26.2496 37.6119 26.2249C37.6994 26.1979 37.7713 26.1518 37.8274 26.0865C37.8835 26.0213 37.9262 25.9313 37.9553 25.8166C37.9845 25.7019 38.0025 25.5568 38.0092 25.3813H38.9992Z" fill="white"/>
<path d="M42.0094 22.1048H42.9994V27.0179H42.0094V23.765L40.5649 27.0179H39.5716V22.1048H40.5649V25.361L42.0094 22.1048Z" fill="white"/>
<path d="M47.1141 25.3813C47.0894 25.9414 46.9322 26.3655 46.6427 26.6534C46.3531 26.9414 45.9445 27.0854 45.417 27.0854C45.1454 27.0854 44.903 27.0404 44.6897 26.9504C44.4764 26.8604 44.2969 26.7265 44.151 26.5488C44.005 26.3711 43.8928 26.1518 43.8142 25.8908C43.7379 25.6276 43.6997 25.3251 43.6997 24.9831V24.1463C43.6997 23.8043 43.739 23.5018 43.8176 23.2386C43.8984 22.9754 44.014 22.7549 44.1644 22.5772C44.3148 22.3995 44.4966 22.2656 44.7099 22.1756C44.9232 22.0834 45.1634 22.0373 45.4305 22.0373C45.9647 22.0373 46.3699 22.1869 46.646 22.4861C46.9244 22.7853 47.0826 23.2149 47.1208 23.7751H46.1275C46.123 23.5996 46.1073 23.4534 46.0803 23.3364C46.0557 23.2172 46.0164 23.1227 45.9625 23.053C45.9086 22.9832 45.8379 22.9338 45.7504 22.9045C45.6651 22.8753 45.5584 22.8606 45.4305 22.8606C45.298 22.8606 45.1847 22.8831 45.0904 22.9281C44.9984 22.9731 44.9232 23.0462 44.8648 23.1475C44.8064 23.2464 44.7627 23.378 44.7335 23.5423C44.7065 23.7042 44.6931 23.9033 44.6931 24.1395V24.9831C44.6931 25.2126 44.7043 25.4083 44.7267 25.5703C44.7492 25.7322 44.7885 25.865 44.8446 25.9684C44.9007 26.0697 44.9748 26.1439 45.0668 26.1911C45.1589 26.2384 45.2756 26.262 45.417 26.262C45.5382 26.262 45.6415 26.2496 45.7268 26.2249C45.8143 26.1979 45.8862 26.1518 45.9423 26.0865C45.9984 26.0213 46.0411 25.9313 46.0702 25.8166C46.0994 25.7019 46.1174 25.5568 46.1241 25.3813H47.1141Z" fill="white"/>
<path d="M50.7978 22.9315H49.5856V27.0179H48.5923V22.9315H47.4003V22.1048H50.7978V22.9315Z" fill="white"/>
<path d="M53.8989 24.892H52.3568V26.1945H54.1818V27.0179H51.3668V22.1048H54.1751V22.9315H52.3568V24.0923H53.8989V24.892Z" fill="white"/>
<path d="M56.0472 22.1048L56.9732 25.658L57.8958 22.1048H59.1888V27.0179H58.1955V25.6884L58.2864 23.6401L57.3065 27.0179H56.6331L55.6532 23.6401L55.7442 25.6884V27.0179H54.7542V22.1048H56.0472Z" fill="white"/>
<path d="M60.9902 23.8696H61.5896C61.8365 23.8696 62.0588 23.9067 62.2563 23.9809C62.4561 24.0552 62.6256 24.1609 62.7647 24.2981C62.9062 24.4331 63.0139 24.5962 63.088 24.7874C63.1643 24.9786 63.2025 25.1912 63.2025 25.4252C63.2025 25.6614 63.1643 25.8773 63.088 26.073C63.0139 26.2665 62.9062 26.4341 62.7647 26.5758C62.6256 26.7153 62.4561 26.8244 62.2563 26.9031C62.0588 26.9796 61.8365 27.0179 61.5896 27.0179H59.9969V22.1048H60.9902V23.8696ZM64.4483 27.0179H63.4584V22.1048H64.4483V27.0179ZM60.9902 24.6929V26.1945H61.5896C61.6906 26.1945 61.7804 26.1743 61.859 26.1338C61.9375 26.0933 62.0026 26.0382 62.0543 25.9684C62.1059 25.8964 62.1452 25.8132 62.1721 25.7187C62.199 25.6243 62.2125 25.5241 62.2125 25.4184C62.2125 25.3149 62.199 25.2193 62.1721 25.1316C62.1452 25.0439 62.1059 24.9674 62.0543 24.9021C62.0026 24.8369 61.9375 24.7863 61.859 24.7503C61.7804 24.712 61.6906 24.6929 61.5896 24.6929H60.9902Z" fill="white"/>
<path d="M67.6303 25.3813C67.646 25.6737 67.7066 25.8953 67.8121 26.046C67.9199 26.1945 68.095 26.2688 68.3374 26.2688C68.5956 26.2688 68.7808 26.1608 68.893 25.9448C69.0075 25.7266 69.0726 25.4038 69.0883 24.9764H67.893V24.1496H69.0849C69.067 23.7155 68.9951 23.3927 68.8694 23.1812C68.7437 22.9697 68.5619 22.864 68.324 22.864C68.196 22.864 68.0883 22.8843 68.0007 22.9248C67.9154 22.9652 67.8458 23.0249 67.7919 23.1036C67.7403 23.1801 67.701 23.2757 67.6741 23.3904C67.6494 23.5029 67.6337 23.6322 67.627 23.7785H66.6336C66.6538 23.5265 66.7032 23.2948 66.7818 23.0833C66.8604 22.8696 66.9692 22.6852 67.1084 22.53C67.2498 22.3747 67.4204 22.2544 67.6202 22.1689C67.8222 22.0812 68.0568 22.0373 68.324 22.0373C68.5911 22.0373 68.8324 22.0935 69.0479 22.206C69.2656 22.3162 69.4508 22.4748 69.6035 22.6818C69.7561 22.8865 69.874 23.1351 69.957 23.4275C70.0401 23.72 70.0816 24.0484 70.0816 24.4129V24.7267C70.0816 25.0911 70.0412 25.4184 69.9604 25.7086C69.8818 25.9988 69.7674 26.2463 69.617 26.451C69.4666 26.6557 69.2836 26.8132 69.0681 26.9234C68.8526 27.0314 68.609 27.0854 68.3374 27.0854C68.0748 27.0854 67.8413 27.0437 67.6371 26.9605C67.4328 26.8773 67.2588 26.7603 67.1151 26.6096C66.9737 26.4588 66.8626 26.2789 66.7818 26.0697C66.701 25.8605 66.6538 25.631 66.6404 25.3813H67.6303Z" fill="white"/>
<path d="M74.0785 22.1048V27.0179H73.0852V22.9315H72.1861L72.139 24.315C72.121 24.8144 72.0795 25.2362 72.0144 25.5804C71.9493 25.9223 71.8561 26.2001 71.7349 26.4139C71.6159 26.6276 71.4678 26.7817 71.2904 26.8761C71.1131 26.9706 70.9055 27.0179 70.6675 27.0179H70.4318V26.1945H70.5463C70.6765 26.1788 70.7786 26.1383 70.8527 26.073C70.9268 26.0078 70.984 25.9043 71.0244 25.7626C71.0648 25.6186 71.0929 25.4297 71.1086 25.1957C71.1243 24.9617 71.1378 24.6682 71.149 24.315L71.2197 22.1048H74.0785Z" fill="white"/>
<path d="M77.4086 24.892H75.8664V26.1945H77.6915V27.0179H74.8765V22.1048H77.6847V22.9315H75.8664V24.0923H77.4086V24.892Z" fill="white"/>
<path d="M79.6916 25.0135H79.2606V27.0179H78.2706V22.1048H79.2606V24.0687H79.5939L80.4458 22.1048H81.6513L80.4525 24.3926L81.7859 27.0179H80.6074L79.6916 25.0135Z" fill="white"/>
<path d="M85.3316 22.9315H84.1194V27.0179H83.1261V22.9315H81.9341V22.1048H85.3316V22.9315Z" fill="white"/>
<path d="M86.8906 25.2902V27.0179H85.9007V22.1048H87.5708C87.8199 22.1048 88.0422 22.1453 88.2375 22.2263C88.435 22.3072 88.6023 22.4208 88.7392 22.5671C88.8761 22.711 88.9805 22.8831 89.0523 23.0833C89.1264 23.2813 89.1634 23.4973 89.1634 23.7312C89.1634 23.9697 89.1264 24.1856 89.0523 24.3791C88.9805 24.5703 88.8761 24.7334 88.7392 24.8684C88.6023 25.0034 88.435 25.108 88.2375 25.1822C88.0399 25.2542 87.8177 25.2902 87.5708 25.2902H86.8906ZM86.8906 24.4635H87.5708C87.674 24.4635 87.7627 24.4455 87.8368 24.4095C87.9131 24.3735 87.9748 24.324 88.022 24.261C88.0714 24.1958 88.1073 24.1193 88.1297 24.0315C88.1522 23.9416 88.1634 23.8437 88.1634 23.738C88.1634 23.6322 88.1522 23.531 88.1297 23.4343C88.1073 23.3376 88.0714 23.2521 88.022 23.1778C87.9748 23.1036 87.9131 23.044 87.8368 22.999C87.7627 22.954 87.674 22.9315 87.5708 22.9315H86.8906V24.4635Z" fill="white"/>
<path d="M93.2781 25.0034C93.2781 25.3476 93.2355 25.6501 93.1502 25.9111C93.0649 26.172 92.9448 26.3891 92.7899 26.5623C92.6373 26.7355 92.4521 26.866 92.2343 26.9538C92.0188 27.0415 91.7798 27.0854 91.5171 27.0854C91.2545 27.0854 91.0143 27.0415 90.7965 26.9538C90.5788 26.866 90.3913 26.7355 90.2342 26.5623C90.0793 26.3891 89.9581 26.172 89.8706 25.9111C89.7853 25.6501 89.7426 25.3476 89.7426 25.0034V24.1868C89.7426 23.8336 89.7853 23.5231 89.8706 23.2554C89.9559 22.9855 90.076 22.7605 90.2308 22.5806C90.3857 22.4006 90.5721 22.2656 90.7898 22.1756C91.0075 22.0834 91.2477 22.0373 91.5104 22.0373C91.773 22.0373 92.0121 22.0834 92.2276 22.1756C92.4453 22.2656 92.6316 22.4006 92.7865 22.5806C92.9437 22.7605 93.0649 22.9855 93.1502 23.2554C93.2355 23.5231 93.2781 23.8336 93.2781 24.1868V25.0034ZM92.2848 24.18C92.2848 23.9461 92.268 23.747 92.2343 23.5828C92.2006 23.4163 92.1513 23.2802 92.0862 23.1745C92.0211 23.0687 91.9402 22.9911 91.8437 22.9416C91.7472 22.8921 91.6361 22.8674 91.5104 22.8674C91.3824 22.8674 91.2702 22.8921 91.1737 22.9416C91.0771 22.9911 90.9963 23.0687 90.9312 23.1745C90.8661 23.2802 90.8167 23.4163 90.7831 23.5828C90.7494 23.747 90.7326 23.9461 90.7326 24.18V25.0034C90.7326 25.2261 90.7494 25.4173 90.7831 25.577C90.8167 25.7345 90.8661 25.8638 90.9312 25.9651C90.9986 26.0663 91.0805 26.1405 91.177 26.1878C91.2758 26.235 91.3892 26.2586 91.5171 26.2586C91.6428 26.2586 91.7528 26.235 91.8471 26.1878C91.9436 26.1405 92.0244 26.0663 92.0895 25.9651C92.1546 25.8638 92.2029 25.7345 92.2343 25.577C92.268 25.4173 92.2848 25.2261 92.2848 25.0034V24.18Z" fill="white"/>
<path d="M97.4299 27.0179H96.4399V22.9315H94.9853V27.0179H93.9954V22.1048H97.4299V27.0179Z" fill="white"/>
<path d="M100.632 22.1048H101.622V27.0179H100.632V23.765L99.1876 27.0179H98.1942V22.1048H99.1876V25.361L100.632 22.1048Z" fill="white"/>
<path d="M105.488 22.9315H104.275V27.0179H103.282V22.9315H102.09V22.1048H105.488V22.9315Z" fill="white"/>
<path d="M107.993 26.0123H106.642L106.38 27.0179H105.333L106.865 22.1048H107.77L109.313 27.0179H108.255L107.993 26.0123ZM106.858 25.1856H107.774L107.316 23.4343L106.858 25.1856Z" fill="white"/>
<path d="M113.212 27.0179H112.225V24.9156H110.764V27.0179H109.774V22.1048H110.764V24.0923H112.225V22.1048H113.212V27.0179Z" fill="white"/>
<path d="M116.411 22.1048H117.401V27.0179H116.411V23.765L114.966 27.0179H113.973V22.1048H114.966V25.361L116.411 22.1048Z" fill="white"/>
<path d="M120.02 27.0179V25.2497H119.502L118.778 27.0179H117.71L118.579 24.892C118.379 24.7525 118.228 24.5793 118.125 24.3724C118.024 24.1631 117.973 23.9134 117.973 23.6232C117.973 23.3735 118.009 23.1542 118.081 22.9652C118.153 22.7763 118.256 22.6188 118.391 22.4928C118.525 22.3646 118.688 22.2679 118.879 22.2026C119.072 22.1374 119.289 22.1048 119.529 22.1048H121.014V27.0179H120.02ZM118.966 23.7009C118.966 23.9731 119.015 24.171 119.111 24.2947C119.208 24.4162 119.358 24.477 119.562 24.477H120.02V22.9315H119.529C119.331 22.9315 119.187 22.999 119.098 23.134C119.01 23.2667 118.966 23.4557 118.966 23.7009Z" fill="white"/>
</g>
<defs>
<clipPath id="clip0_1660_35585">
<rect width="138" height="27" fill="white" transform="translate(0 0.5)"/>
</clipPath>
</defs>
</svg>
