<svg width="24" height="24" viewBox="0 0 24 24" fill="none" xmlns="http://www.w3.org/2000/svg">
<path d="M13.6939 17.8184C14.6799 17.1057 15.7946 16.351 16.8021 16.8541C18.1526 17.5459 19.4816 18.2167 20.8321 18.8875C21.9254 19.4535 22.3327 20.0824 21.6896 21.1935C20.6821 22.9753 18.024 24.4427 16.009 23.8767C7.28443 21.466 1.36804 13.3743 2.054 4.38115C2.20405 2.32678 4.51916 0.377222 6.5556 0.0418145C7.84178 -0.167815 8.31337 0.419148 8.48486 1.61404C8.67779 3.08145 8.84928 4.56982 9.04221 6.01627C9.19226 7.12731 8.09901 7.90294 7.09151 8.55279C4.62634 10.2298 11.2501 19.4745 13.6939 17.8184Z" fill="white"/>
</svg>
