<svg width="24" height="24" viewBox="0 0 24 24" fill="none" xmlns="http://www.w3.org/2000/svg">
<path fill-rule="evenodd" clip-rule="evenodd" d="M11.998 11.1562C9.23723 11.1562 6.99946 8.88255 6.99946 6.07824C6.99946 3.27361 9.23754 1 11.998 1C14.7588 1 16.9969 3.27361 16.9969 6.07824C16.9966 8.88255 14.7588 11.1562 11.998 11.1562ZM11.9754 3.52872C10.5967 3.52872 9.47888 4.66429 9.47888 6.0652C9.47888 7.46581 10.5967 8.60137 11.9754 8.60137C13.3544 8.60137 14.4719 7.46581 14.4719 6.0652C14.4719 4.66429 13.3541 3.52872 11.9754 3.52872ZM7.82614 12.4016C7.82614 12.8662 7.57013 13.2547 7.20598 13.4797C7.21362 13.4884 7.21973 13.4987 7.22767 13.5074C5.75731 14.3416 4.64714 15.5637 4.52707 17.0947C4.51852 17.1397 4.5005 17.181 4.5005 17.2288V19.7326C4.5005 20.1321 4.81913 20.4561 5.21261 20.4561H18.8048C19.198 20.4561 19.5169 20.1324 19.5169 19.7326V17.2288C19.5169 17.1856 19.4998 17.1484 19.4928 17.1074C19.3755 15.5671 18.2308 14.3388 16.725 13.5024C16.732 13.4946 16.7375 13.4853 16.7445 13.4776C16.3828 13.2519 16.1286 12.8649 16.1286 12.4022C16.1286 11.694 16.6938 11.1199 17.391 11.1199C17.6827 11.1199 17.9387 11.2369 18.1523 11.4057C18.1529 11.4041 18.1541 11.4029 18.1547 11.4013C18.1914 11.4262 18.2247 11.4547 18.261 11.4802C18.2683 11.4873 18.2781 11.4907 18.2852 11.4979C20.3836 12.963 21.9475 15.056 22 17.4264H21.9921V21.4445C21.9921 22.3036 21.3218 23 20.4948 23C20.4948 23 16.2466 23 11.998 23C7.74824 23 3.49816 23 3.49816 23C2.67026 22.9997 2 22.3033 2 21.4442V17.4261C2 17.3023 2.01741 17.1834 2.04369 17.068C2.23371 14.8499 3.70773 12.8969 5.66353 11.5065C5.69133 11.4777 5.72829 11.4612 5.75853 11.4352C5.76984 11.4271 5.78023 11.4181 5.79183 11.4103C5.79214 11.411 5.79245 11.4113 5.79275 11.4119C6.00782 11.2387 6.2681 11.1195 6.56383 11.1195C7.26097 11.1192 7.82614 11.6934 7.82614 12.4016Z" fill="white"/>
</svg>
