<svg width="15" height="15" viewBox="0 0 15 15" fill="none" xmlns="http://www.w3.org/2000/svg">
<path d="M12.0446 1.79285H2.92577C2.12379 1.79285 1.50003 2.45022 1.50003 3.22711V13.5658C1.50003 14.3426 2.12379 15 2.92577 15H12.0743C12.8466 15 13.5 14.3725 13.5 13.5658V3.22711C13.4703 2.45022 12.8466 1.79285 12.0446 1.79285ZM12.5792 13.5658C12.5792 13.8646 12.3416 14.1036 12.0446 14.1036H2.92577C2.62874 14.1036 2.39112 13.8646 2.39112 13.5658V3.22711C2.39112 2.9283 2.62874 2.68926 2.92577 2.68926H12.0743C12.3713 2.68926 12.6089 2.9283 12.6089 3.22711V13.5658H12.5792Z" fill="#4674C9"/>
<path d="M9.60878 0H5.39096V0.896414H9.60878V0Z" fill="#4674C9"/>
<path d="M8.92573 4.69122L7.88613 4.7211L5.30197 9.4721L8.33167 8.93425L6.5792 12.5498H7.5594L9.93563 7.73903L6.96534 8.27688L8.92573 4.69122Z" fill="#4674C9"/>
</svg>
