<svg width="15" height="15" viewBox="0 0 15 15" fill="none" xmlns="http://www.w3.org/2000/svg">
<path d="M13.2128 2.57812H7.85409V0H7.14589V2.57812H1.7872C0.960971 2.57812 0.299988 3.23437 0.299988 4.05469V11.6484C0.299988 12.4688 0.960971 13.125 1.7872 13.125H5.35179V15H6.05999V13.125H9.41212V15H10.1203V13.125H13.2364C14.0626 13.125 14.7236 12.4688 14.7236 11.6484V4.05469C14.7 3.23437 14.039 2.57812 13.2128 2.57812ZM13.9918 11.6484C13.9918 12.0703 13.6377 12.4219 13.2128 12.4219H1.7872C1.36228 12.4219 1.00818 12.0703 1.00818 11.6484V4.05469C1.00818 3.63281 1.36228 3.28125 1.7872 3.28125H13.2128C13.6377 3.28125 13.9918 3.63281 13.9918 4.05469V11.6484V11.6484Z" fill="#4674C9"/>
<path d="M3.25079 8.78906H11.7492V6.21094H3.25079V8.78906ZM3.95899 6.91406H11.041V8.08594H3.95899V6.91406Z" fill="#4674C9"/>
<path d="M5.68217 11.0625C5.95596 11.0625 6.17791 10.8421 6.17791 10.5703C6.17791 10.2985 5.95596 10.0781 5.68217 10.0781C5.40838 10.0781 5.18643 10.2985 5.18643 10.5703C5.18643 10.8421 5.40838 11.0625 5.68217 11.0625Z" fill="#4674C9"/>
<path d="M9.74272 11.0625C10.0165 11.0625 10.2385 10.8421 10.2385 10.5703C10.2385 10.2985 10.0165 10.0781 9.74272 10.0781C9.46893 10.0781 9.24698 10.2985 9.24698 10.5703C9.24698 10.8421 9.46893 11.0625 9.74272 11.0625Z" fill="#1C2536"/>
</svg>
