<svg width="15" height="15" viewBox="0 0 15 15" fill="none" xmlns="http://www.w3.org/2000/svg">
<path d="M14.4 6.83106C14.4 3.0764 11.317 0 7.50001 0C3.70745 0 0.600006 3.0764 0.600006 6.83106C0.600006 8.67205 1.33405 10.3435 2.53298 11.5547H2.50852V13.3043C2.50852 14.2248 3.26703 15 4.22128 15H10.8032C11.733 15 12.516 14.2491 12.516 13.3043V11.5547H12.4915C13.666 10.3435 14.4 8.67205 14.4 6.83106ZM7.50001 0.726708C10.9011 0.726708 13.666 3.46398 13.666 6.83106C13.666 10.1981 10.9011 12.9354 7.50001 12.9354C4.09894 12.9354 1.33405 10.1981 1.33405 6.83106C1.33405 3.46398 4.09894 0.726708 7.50001 0.726708ZM10.7787 14.2733H4.22128C3.68298 14.2733 3.24256 13.8373 3.24256 13.3043V12.2087C4.41703 13.1292 5.88511 13.6621 7.50001 13.6621C9.1149 13.6621 10.583 13.105 11.7575 12.2087V13.3043C11.7575 13.8373 11.317 14.2733 10.7787 14.2733Z" fill="#4674C9"/>
<path d="M4.14794 5.40187H3.04688V6.83106H4.14794V5.40187Z" fill="#4674C9"/>
<path d="M10.1671 8.79316H4.56387V9.49565H10.1671V8.79316Z" fill="#4674C9"/>
<path d="M6.03203 5.40187H4.93097V6.83106H6.03203V5.40187Z" fill="#4674C9"/>
<path d="M7.8915 5.40187H6.79044V6.83106H7.8915V5.40187Z" fill="#4674C9"/>
<path d="M9.77557 5.40187H8.6745V6.83106H9.77557V5.40187Z" fill="#4674C9"/>
<path d="M11.6597 5.40187H10.5586V6.83106H11.6597V5.40187Z" fill="#4674C9"/>
</svg>
