<svg width="15" height="15" viewBox="0 0 15 15" fill="none" xmlns="http://www.w3.org/2000/svg">
<g clip-path="url(#clip0_1660_37645)">
<path d="M14.2958 2.65023V3.44836H12.3474V2.62676C12.3474 2.01643 11.831 1.5 11.2207 1.5H3.77934C3.16901 1.5 2.65258 2.01643 2.65258 2.62676V3.44836H0.704225V2.65023H0V3.44836V8.82394V12.0869C0 12.4859 0.328638 12.8146 0.727699 12.8146H14.2723C14.6714 12.8146 15 12.4859 15 12.0869V8.82394V3.44836V2.65023H14.2958ZM14.2958 4.15258V8.11972H12.3709V4.15258H14.2958ZM3.35681 2.62676C3.35681 2.39202 3.5446 2.20423 3.77934 2.20423H11.2207C11.4554 2.20423 11.6432 2.39202 11.6432 2.62676V3.44836V8.82394V9.4108C11.6432 9.64554 11.4554 9.83333 11.2207 9.83333H3.77934C3.5446 9.83333 3.35681 9.64554 3.35681 9.4108V8.82394V3.44836V2.62676ZM2.65258 4.15258V8.11972H0.704225V4.15258H2.65258ZM14.2723 12.1103H0.704225V8.82394H2.65258V9.4108C2.65258 10.0211 3.16901 10.5376 3.77934 10.5376H11.2207C11.831 10.5376 12.3474 10.0211 12.3474 9.4108V8.82394H14.2723V12.1103Z" fill="#4674C9"/>
<path d="M6.80748 8.47183H7.46476L9.03753 5.27934L7.0657 5.63145L8.38025 3.26056L7.67602 3.28403L5.93893 6.42957L7.98119 6.07746L6.80748 8.47183Z" fill="#4674C9"/>
</g>
<defs>
<clipPath id="clip0_1660_37645">
<rect width="15" height="11.3146" fill="white" transform="translate(0 1.5)"/>
</clipPath>
</defs>
</svg>
