<svg width="15" height="15" viewBox="0 0 15 15" fill="none" xmlns="http://www.w3.org/2000/svg">
<g clip-path="url(#clip0_1660_37640)">
<path d="M15 7.58449C15 7.05234 14.6674 6.61996 14.1685 6.48693V0.600006H0V14.5357H14.1685V8.68205C14.6674 8.51575 15 8.08338 15 7.58449ZM0.665188 13.8705V7.91708H3.5255V11.5756L8.34812 8.01686V10.9104H9.0133V3.95921H8.34812V7.15211L3.5255 3.59335V7.25189H0.665188V1.26519H13.5033V6.45367C13.1375 6.55344 12.8381 6.85278 12.7384 7.21863H10.0111V7.88382H12.7384C12.8381 8.24967 13.1375 8.54901 13.5033 8.64879V13.8373H0.665188V13.8705ZM7.35033 7.91708L4.19069 10.2452V7.91708H7.35033ZM4.19069 7.25189V4.92373L7.35033 7.25189H4.19069Z" fill="#4674C9"/>
</g>
<defs>
<clipPath id="clip0_1660_37640">
<rect width="15" height="13.9357" fill="white" transform="translate(0 0.600006)"/>
</clipPath>
</defs>
</svg>
