<svg width="15" height="15" viewBox="0 0 15 15" fill="none" xmlns="http://www.w3.org/2000/svg">
<path d="M13.479 0H1.49476C0.681818 0 0 0.681818 0 1.49476V13.479C0 14.3182 0.681818 14.9738 1.49476 14.9738H13.479C14.3182 14.9738 14.9738 14.292 14.9738 13.479V1.49476C15 0.681818 14.3182 0 13.479 0ZM14.2133 13.479C14.2133 13.8724 13.8986 14.1871 13.5052 14.1871H11.2238V8.91608H10.4371V14.2133H7.89336V8.91608H7.10664V14.2133H4.56294V8.91608H3.77622V14.2133H1.49476C1.1014 14.2133 0.786713 13.8986 0.786713 13.5052V1.49476C0.786713 1.1014 1.1014 0.786713 1.49476 0.786713H13.479C13.8724 0.786713 14.1871 1.1014 14.1871 1.49476V13.479H14.2133Z" fill="#4674C9"/>
<path d="M3.77606 6.89685H11.2236V3.17307H3.77606V6.89685ZM4.56278 3.95978H10.4369V6.13636H4.56278V3.95978Z" fill="#4674C9"/>
</svg>
