<svg width="15" height="15" viewBox="0 0 15 15" fill="none" xmlns="http://www.w3.org/2000/svg">
<path d="M7.53775 4.23007C5.54615 4.23007 3.93271 5.8461 3.93271 7.84089C3.93271 9.83568 5.54615 11.4517 7.53775 11.4517C9.52935 11.4517 11.1428 9.83568 11.1428 7.84089C11.1428 5.87135 9.52935 4.23007 7.53775 4.23007ZM7.53775 10.7194C5.97473 10.7194 4.68901 9.43167 4.68901 7.86614C4.68901 6.30061 5.97473 5.01284 7.53775 5.01284C9.10077 5.01284 10.3865 6.30061 10.3865 7.86614C10.3865 9.43167 9.10077 10.7194 7.53775 10.7194Z" fill="#4674C9"/>
<path d="M15 2.33628V1.57877H13.8151L12.605 2.76554L11.3193 1.20001H3.7563L2.42017 2.81604L1.18487 1.57877H0V2.33628H0.882353L1.94118 3.39681L0.478992 5.16434V13.8H14.5966V5.16434L13.1092 3.3463L14.1176 2.33628H15ZM13.8403 13.0425H1.23529V5.41685L4.10924 1.95753H10.9664L13.8403 5.41685V13.0425Z" fill="#4674C9"/>
</svg>
