<svg width="15" height="15" viewBox="0 0 15 15" fill="none" xmlns="http://www.w3.org/2000/svg">
<path d="M13.6466 1.8157H1.35338C0.592105 1.8157 0 2.43921 0 3.17607V12.7553C0 13.4922 0.592105 14.1157 1.35338 14.1157H13.6466C14.3797 14.1157 15 13.5205 15 12.7553V3.17607C14.9718 2.43921 14.3797 1.8157 13.6466 1.8157ZM14.1259 12.7553C14.1259 13.0387 13.9004 13.2655 13.6184 13.2655H1.35338C1.07143 13.2655 0.845865 13.0387 0.845865 12.7553V3.17607C0.845865 2.89266 1.07143 2.66593 1.35338 2.66593H13.6466C13.9286 2.66593 14.1541 2.89266 14.1541 3.17607V12.7553H14.1259Z" fill="#4674C9"/>
<path d="M5.8444 0H1.81583V0.851107H5.8444V0Z" fill="#4674C9"/>
<path d="M12.6248 0H8.59625V0.851107H12.6248V0Z" fill="#4674C9"/>
<path d="M9.73104 10.4119C9.39059 10.4119 8.70971 10.0714 8.00045 7.83019C7.31957 5.78753 6.5252 4.7662 5.53225 4.7662C5.53225 4.7662 5.53225 4.7662 5.50387 4.7662C3.80166 4.7662 2.61011 7.97204 2.46826 8.34085L3.26263 8.62456C3.63144 7.6316 4.6244 5.61731 5.50387 5.61731C6.04291 5.61731 6.63868 6.52516 7.17772 8.11389C7.8586 10.2133 8.70971 11.2346 9.70267 11.263H9.73104C11.4049 11.263 12.5964 8.31248 12.7383 7.97204L11.9439 7.65997C11.5751 8.56782 10.5821 10.4119 9.73104 10.4119Z" fill="#4674C9"/>
</svg>
