<svg width="15" height="15" viewBox="0 0 15 15" fill="none" xmlns="http://www.w3.org/2000/svg">
<path d="M15 14.4L9.54778 0.300003H0L2.73891 7.33564L0.179181 14.0841L0.998294 14.1416L3.14846 8.42689L5.45222 14.3713H15V14.4ZM4.78669 10.4945H6.88567L8.08874 13.5098H5.93857L4.78669 10.4945ZM7.75597 5.12444L9.54778 9.633H7.39761L5.6058 5.12444H7.75597ZM5.24744 4.26294L4.01877 1.16151H6.16894L7.42321 4.26294H5.24744ZM10.5973 5.12444L12.3379 9.66171H10.3925L8.60068 5.15316L10.5973 5.12444ZM9.88055 10.4945L11.0836 13.5098H8.93345L7.73038 10.4945H9.88055ZM6.5529 9.633H4.45393L2.71331 5.12444H4.76109L6.5529 9.633ZM11.9283 13.5385L10.7253 10.5232H12.6706L13.8481 13.5385H11.9283ZM10.2645 4.26294H8.26792L7.01365 1.16151H9.06143L10.2645 4.26294ZM3.17406 1.16151L4.40273 4.26294H2.35495L1.17747 1.16151H3.17406Z" fill="#4674C9"/>
</svg>
