<svg width="15" height="15" viewBox="0 0 15 15" fill="none" xmlns="http://www.w3.org/2000/svg">
<path d="M7.33504 6.28358L4.59865 1.8H0L2.73639 6.28358H7.33504ZM2.50836 4.44416H3.4965L4.18059 5.55547H3.19245L2.50836 4.44416ZM5.05472 5.51715L4.37062 4.40584H5.28275L5.96685 5.51715H5.05472ZM4.82668 3.67774H3.87655L3.23046 2.56642H4.18059L4.82668 3.67774ZM2.31833 2.56642L3.00243 3.67774H2.05229L1.36819 2.56642H2.31833Z" fill="#4674C9"/>
<path d="M14.7 6.28358L11.9256 1.8H7.36493L10.1013 6.28358H14.7ZM9.87329 4.44416H10.8614L11.5455 5.55547H10.5574L9.87329 4.44416ZM12.4196 5.51715L11.7355 4.40584H12.6477L13.3318 5.51715H12.4196ZM12.1916 3.67774H11.2415L10.5574 2.56642H11.5075L12.1916 3.67774ZM9.68326 2.56642L10.3674 3.67774H9.41722L8.73312 2.56642H9.68326Z" fill="#4674C9"/>
<path d="M0 8.41641L2.73639 12.9H7.33504L4.59865 8.41641H0ZM4.82668 10.2941H3.87655L3.19245 9.18284H4.14259L4.82668 10.2941ZM2.31833 9.18284L3.00243 10.2941H2.05229L1.36819 9.18284H2.31833ZM2.50836 11.0606H3.4965L4.18059 12.1719H3.19245L2.50836 11.0606ZM5.05472 12.1336L4.37062 11.0223H5.28275L5.96685 12.1336H5.05472Z" fill="#4674C9"/>
<path d="M7.36493 8.41641L10.1013 12.9H14.7L11.9636 8.41641H7.36493ZM12.1916 10.2941H11.2415L10.5574 9.18284H11.5075L12.1916 10.2941ZM9.68326 9.18284L10.3674 10.2941H9.41722L8.73312 9.18284H9.68326ZM9.87329 11.0606H10.8614L11.5455 12.1719H10.5574L9.87329 11.0606ZM12.4196 12.1336L11.7355 11.0223H12.6477L13.3318 12.1336H12.4196Z" fill="#4674C9"/>
</svg>
