<svg width="15" height="15" viewBox="0 0 15 15" fill="none" xmlns="http://www.w3.org/2000/svg">
<g clip-path="url(#clip0_1660_37625)">
<path d="M13.6723 1.5H1.35593C0.59322 1.5 0 2.09654 0 2.86351V12.4649C0 13.2035 0.59322 13.8284 1.35593 13.8284H13.6723C14.4068 13.8284 15.0282 13.2319 15.0282 12.4649V2.86351C15 2.09654 14.4068 1.5 13.6723 1.5ZM14.1525 12.4365C14.1525 12.7206 13.9266 12.9478 13.6441 12.9478H1.35593C1.07345 12.9478 0.847458 12.7206 0.847458 12.4365V2.86351C0.847458 2.57945 1.07345 2.35219 1.35593 2.35219H13.6723C13.9548 2.35219 14.1808 2.57945 14.1808 2.86351V12.4365H14.1525Z" fill="#4674C9"/>
<path d="M11.1017 3.82935H3.89829C3.16383 3.82935 2.54236 4.42588 2.54236 5.19286V10.164C2.54236 10.9026 3.13558 11.5275 3.89829 11.5275H11.1017C11.8361 11.5275 12.4576 10.931 12.4576 10.164V5.16445C12.4576 4.42588 11.8644 3.82935 11.1017 3.82935ZM9.20903 10.6469H5.8192C6.01694 9.87992 6.6949 9.31179 7.51411 9.31179C8.33332 9.31179 9.01129 9.87992 9.20903 10.6469ZM11.6102 10.1356C11.6102 10.4196 11.3842 10.6469 11.1017 10.6469H10.0565C9.97174 10.0788 9.68925 9.59586 9.32202 9.22657L10.6215 7.18131L9.91524 6.72681L8.64405 8.74366C8.30507 8.57323 7.93784 8.48801 7.51411 8.48801C6.24292 8.48801 5.16948 9.42542 4.97174 10.6753H3.92654C3.64405 10.6753 3.41806 10.4481 3.41806 10.164V5.16445C3.41806 4.88038 3.64405 4.65313 3.92654 4.65313H11.1299C11.4124 4.65313 11.6384 4.88038 11.6384 5.16445V10.1356H11.6102Z" fill="#4674C9"/>
</g>
<defs>
<clipPath id="clip0_1660_37625">
<rect width="15" height="12.3" fill="white" transform="translate(0 1.5)"/>
</clipPath>
</defs>
</svg>
