<svg width="15" height="15" viewBox="0 0 15 15" fill="none" xmlns="http://www.w3.org/2000/svg">
<path d="M13.8158 4.85648V1.95826H9.5V4.85648H8.34211V6.9714C8.34211 7.83304 9.05263 8.53801 9.92105 8.53801H11.2632V12.2456C11.2632 13.1595 10.5 13.9167 9.57895 13.9167H5.36842C4.44737 13.9167 3.68421 13.1595 3.68421 12.2456V8.53801H5.44737C6.07895 8.53801 6.60526 8.01581 6.60526 7.38916V1.95826H5V0H4.21053V1.95826H2.21053V0H1.42105V1.95826H0V7.38916C0 8.01581 0.526316 8.53801 1.15789 8.53801H2.92105V12.2456C2.92105 13.6034 4.02632 14.7 5.39474 14.7H9.60526C10.9737 14.7 12.0789 13.6034 12.0789 12.2456V8.53801H13.4211C14.2895 8.53801 15 7.83304 15 6.9714V4.85648H13.8158ZM0.789474 7.38916V2.74156H5.84211V7.38916C5.84211 7.59805 5.68421 7.75471 5.47368 7.75471H1.15789C0.947369 7.75471 0.789474 7.59805 0.789474 7.38916ZM10.2895 2.74156H13V4.85648H10.2895V2.74156ZM14.1842 6.9714C14.1842 7.41528 13.8158 7.75471 13.3947 7.75471H9.92105C9.47368 7.75471 9.13158 7.38917 9.13158 6.9714V5.63979H9.5H13.7895H14.1842V6.9714Z" fill="#4674C9"/>
</svg>
